<?xml version="1.0" encoding="UTF-8" standalone="no"?>
<!DOCTYPE svg PUBLIC "-//W3C//DTD SVG 1.1//EN" "http://www.w3.org/Graphics/SVG/1.1/DTD/svg11.dtd">
<svg xmlns="http://www.w3.org/2000/svg" version="1.1" viewBox="0.00 0.00 1024.00 1024.00">
<g stroke-width="2.00" fill="none" stroke-linecap="butt">
<path stroke="#50ae7b" vector-effect="non-scaling-stroke" d="
  M 716.78 140.55
  C 708.17 134.53 697.04 132.52 686.75 132.45
  C 667.98 132.32 659.49 132.47 640.77 132.03
  Q 625.37 131.66 607.32 131.98
  C 582.90 132.42 575.14 132.34 550.00 132.29
  C 548.08 132.28 546.32 131.90 544.68 131.90
  Q 366.15 132.06 304.50 131.95
  C 301.65 131.95 297.61 132.34 294.49 132.35
  Q 258.40 132.43 231.81 132.37
  Q 218.33 132.34 211.29 133.68
  C 177.57 140.08 152.60 169.20 152.88 204.06
  Q 153.06 226.59 152.96 259.25
  C 152.94 265.37 152.32 271.01 152.39 276.62
  Q 152.51 285.90 152.53 311.04
  Q 152.73 575.29 152.70 806.53
  C 152.70 843.23 181.20 874.86 218.49 876.58
  C 227.49 876.99 238.11 876.88 244.60 876.69
  Q 250.49 876.52 490.50 876.82
  Q 496.73 876.83 500.50 876.82
  Q 688.51 876.70 727.55 876.33
  Q 730.35 876.30 732.30 876.30
  Q 770.08 876.38 794.99 875.92
  C 831.34 875.26 859.50 850.33 864.08 814.25
  Q 864.78 808.78 864.78 798.25
  Q 864.72 378.25 864.74 369.17
  Q 864.75 359.88 864.30 336.84
  Q 863.94 318.68 863.93 304.53
  Q 863.92 291.68 857.75 280.81
  Q 855.23 276.36 852.57 273.69
  Q 840.18 261.23 831.56 252.91
  Q 827.14 248.64 730.91 153.51
  Q 720.30 143.02 716.78 140.55"
/>
<path stroke="#86bf99" vector-effect="non-scaling-stroke" d="
  M 677.91 162.81
  A 0.78 0.77 88.9 0 0 677.13 162.05
  Q 661.45 162.17 228.50 162.08
  C 212.50 162.08 197.19 168.19 188.46 181.97
  Q 182.30 191.69 182.31 201.31
  Q 182.39 626.78 182.31 806.05
  C 182.30 826.39 195.55 842.51 215.55 846.38
  Q 220.85 847.40 225.25 847.40
  Q 500.83 847.43 783.21 847.36
  Q 799.16 847.35 804.18 845.97
  C 819.21 841.83 831.77 829.13 833.61 812.92
  Q 834.06 808.99 834.06 803.50
  Q 833.97 615.13 834.11 308.50
  C 834.11 301.55 834.28 294.74 827.60 291.91
  C 825.29 290.92 822.82 291.20 819.50 291.13
  Q 803.02 290.82 747.71 291.03
  Q 728.58 291.10 721.92 289.48
  C 701.39 284.49 686.26 271.21 679.82 250.78
  C 678.08 245.26 677.91 237.82 677.91 232.25
  C 677.88 208.99 678.25 185.84 677.91 162.81"
/>
<path stroke="#86bf99" vector-effect="non-scaling-stroke" d="
  M 789.77 254.70
  L 737.45 203.21"
/>
<path stroke="#50ae7b" vector-effect="non-scaling-stroke" d="
  M 737.45 203.21
  L 707.52 173.09
  A 0.38 0.37 22.5 0 0 706.88 173.35
  Q 707.05 187.08 707.00 228.72
  Q 706.99 235.95 707.73 239.23
  C 710.00 249.18 717.52 257.15 727.29 259.89
  Q 731.50 261.07 746.42 260.91
  Q 763.78 260.72 795.74 260.87
  A 0.32 0.31 66.3 0 0 795.95 260.32
  L 789.77 254.70"
/>
<path stroke="#c7eac6" vector-effect="non-scaling-stroke" d="
  M 737.45 203.21
  L 736.97 203.09
  A 0.30 0.30 0.0 0 0 736.68 203.60
  L 788.70 254.78
  A 0.43 0.39 74.3 0 0 788.86 254.88
  Q 789.69 255.15 789.77 254.70"
/>
<path stroke="#c7eac6" vector-effect="non-scaling-stroke" d="
  M 526.72 242.00
  A 11.98 11.98 0.0 0 0 514.74 230.02
  L 256.74 230.02
  A 11.98 11.98 0.0 0 0 244.76 242.00
  L 244.76 247.96
  A 11.98 11.98 0.0 0 0 256.74 259.94
  L 514.74 259.94
  A 11.98 11.98 0.0 0 0 526.72 247.96
  L 526.72 242.00"
/>
<path stroke="#c7eac6" vector-effect="non-scaling-stroke" d="
  M 589.64 302.04
  A 11.19 11.19 0.0 0 0 578.45 290.85
  L 255.93 290.85
  A 11.19 11.19 0.0 0 0 244.74 302.04
  L 244.74 309.16
  A 11.19 11.19 0.0 0 0 255.93 320.35
  L 578.45 320.35
  A 11.19 11.19 0.0 0 0 589.64 309.16
  L 589.64 302.04"
/>
<path stroke="#86bf99" vector-effect="non-scaling-stroke" d="
  M 318.71 570.59
  A 0.36 0.36 0.0 0 1 318.08 570.72
  Q 307.09 557.44 295.27 543.81
  Q 290.64 538.47 284.06 537.74
  C 272.05 536.40 265.08 546.07 266.71 557.26
  C 267.29 561.21 269.97 565.18 272.49 567.92
  Q 277.91 573.81 303.10 601.89
  C 307.60 606.90 313.65 610.25 320.61 609.98
  C 332.51 609.50 338.12 601.81 341.92 590.78
  Q 346.22 578.32 349.42 567.39
  Q 349.65 566.58 349.90 566.19
  A 0.45 0.44 55.9 0 1 350.71 566.35
  Q 352.65 576.87 356.75 585.82
  C 360.57 594.17 365.32 599.28 373.45 602.56
  Q 384.08 606.84 394.02 607.92
  C 410.21 609.68 424.93 609.43 440.31 605.57
  C 466.75 598.93 485.67 579.87 489.65 552.54
  C 491.99 536.51 490.10 519.70 480.92 506.55
  C 470.31 491.37 454.29 483.37 436.49 477.50
  Q 412.96 469.74 400.00 465.85
  C 388.61 462.43 372.54 456.11 370.38 442.73
  C 368.93 433.72 372.80 425.85 379.93 420.19
  C 385.38 415.86 392.92 413.66 400.46 413.07
  Q 416.77 411.81 431.23 414.73
  C 439.30 416.36 447.88 419.90 456.13 423.38
  C 460.11 425.06 465.54 425.81 469.22 423.27
  Q 471.09 421.98 473.07 417.71
  Q 475.76 411.92 479.84 402.60
  C 482.50 396.56 479.37 392.45 474.32 389.67
  C 455.67 379.40 434.09 374.63 413.00 374.06
  C 389.05 373.41 363.09 378.92 345.52 395.30
  Q 328.89 410.81 326.91 433.08
  C 324.41 460.98 334.09 482.53 359.86 494.94
  C 365.57 497.69 373.56 501.41 380.93 503.51
  Q 390.59 506.27 397.74 508.26
  Q 405.64 510.45 423.98 517.27
  C 436.30 521.86 446.68 530.42 446.21 544.53
  C 445.83 556.12 438.19 564.97 427.71 568.98
  C 415.39 573.69 399.47 574.06 387.31 571.42
  C 379.35 569.68 376.99 564.87 375.16 556.85
  Q 374.24 552.81 366.99 530.06
  Q 364.78 523.12 358.95 519.55
  C 350.53 514.39 339.26 517.18 334.56 526.05
  Q 332.67 529.63 332.46 530.25
  Q 328.98 540.61 321.78 560.36
  C 320.47 563.95 319.57 567.46 318.71 570.59"
/>
<path stroke="#86bf99" vector-effect="non-scaling-stroke" d="
  M 644.32 476.83
  A 0.39 0.39 0.0 0 1 644.73 477.22
  Q 644.76 508.34 644.71 561.00
  C 644.68 579.95 649.75 596.59 668.68 604.05
  C 683.01 609.70 699.26 610.12 714.25 607.01
  Q 723.18 605.16 727.13 601.65
  C 734.76 594.88 735.12 583.21 729.44 575.11
  Q 726.36 570.73 721.33 569.16
  A 4.23 4.17 -38.3 0 0 719.71 568.98
  C 716.41 569.25 712.98 570.39 709.62 570.68
  C 702.62 571.29 687.99 572.04 685.62 564.34
  Q 684.32 560.12 684.26 553.75
  Q 684.03 529.95 684.15 476.72
  A 0.28 0.28 0.0 0 1 684.43 476.44
  Q 692.31 476.44 711.28 476.50
  C 721.59 476.53 728.53 477.14 730.34 466.04
  Q 731.74 457.50 729.33 449.39
  C 727.75 444.06 723.03 442.78 718.00 442.77
  Q 704.37 442.75 684.82 442.84
  A 0.71 0.71 0.0 0 1 684.11 442.12
  Q 684.39 422.75 684.00 408.27
  C 683.71 397.53 677.18 393.44 667.53 393.47
  C 659.27 393.50 650.42 392.73 645.86 401.27
  Q 644.68 403.48 644.70 409.42
  Q 644.75 425.34 644.74 442.22
  A 0.63 0.63 0.0 0 1 644.09 442.85
  Q 637.90 442.58 627.57 442.90
  C 614.16 443.31 613.53 457.73 616.13 467.73
  C 617.46 472.79 620.51 476.15 625.52 476.58
  Q 634.30 477.33 644.32 476.83"
/>
<path stroke="#86bf99" vector-effect="non-scaling-stroke" d="
  M 548.02 472.02
  Q 547.98 469.08 548.11 456.76
  C 548.21 447.49 547.02 441.96 537.33 439.94
  C 530.43 438.49 517.17 438.43 513.65 446.17
  C 512.73 448.19 512.96 451.21 512.72 453.31
  Q 512.44 455.83 512.44 458.72
  Q 512.67 593.56 512.68 594.75
  C 512.70 600.71 517.43 603.60 522.73 604.48
  Q 533.36 606.24 543.17 604.01
  Q 546.74 603.20 549.73 599.96
  C 552.52 596.93 552.01 591.03 551.97 587.25
  Q 551.75 564.56 551.86 530.00
  Q 551.89 519.06 552.68 514.74
  Q 557.61 487.69 583.41 481.90
  C 587.28 481.03 593.56 481.04 596.74 480.89
  Q 607.16 480.36 608.87 469.94
  Q 610.48 460.14 607.89 449.68
  C 606.05 442.27 599.50 440.94 592.76 441.27
  C 573.04 442.25 555.38 453.13 548.74 472.14
  A 0.37 0.37 0.0 0 1 548.02 472.02"
/>
<path stroke="#c7eac6" vector-effect="non-scaling-stroke" d="
  M 756.88 669.08
  A 12.22 12.22 0.0 0 0 744.66 656.86
  L 257.04 656.86
  A 12.22 12.22 0.0 0 0 244.82 669.08
  L 244.82 674.64
  A 12.22 12.22 0.0 0 0 257.04 686.86
  L 744.66 686.86
  A 12.22 12.22 0.0 0 0 756.88 674.64
  L 756.88 669.08"
/>
<path stroke="#c7eac6" vector-effect="non-scaling-stroke" d="
  M 667.03 728.51
  A 11.38 11.38 0.0 0 0 655.65 717.13
  L 256.23 717.13
  A 11.38 11.38 0.0 0 0 244.85 728.51
  L 244.85 735.49
  A 11.38 11.38 0.0 0 0 256.23 746.87
  L 655.65 746.87
  A 11.38 11.38 0.0 0 0 667.03 735.49
  L 667.03 728.51"
/>
<path stroke="#c7eac6" vector-effect="non-scaling-stroke" d="
  M 599.07 788.63
  A 11.14 11.14 0.0 0 0 587.93 777.49
  L 255.97 777.49
  A 11.14 11.14 0.0 0 0 244.83 788.63
  L 244.83 795.99
  A 11.14 11.14 0.0 0 0 255.97 807.13
  L 587.93 807.13
  A 11.14 11.14 0.0 0 0 599.07 795.99
  L 599.07 788.63"
/>
</g>
<path fill="#91d9a8" d="
  M 1024.00 0.00
  L 1024.00 1024.00
  L 0.00 1024.00
  L 0.00 0.00
  L 1024.00 0.00
  Z
  M 716.78 140.55
  C 708.17 134.53 697.04 132.52 686.75 132.45
  C 667.98 132.32 659.49 132.47 640.77 132.03
  Q 625.37 131.66 607.32 131.98
  C 582.90 132.42 575.14 132.34 550.00 132.29
  C 548.08 132.28 546.32 131.90 544.68 131.90
  Q 366.15 132.06 304.50 131.95
  C 301.65 131.95 297.61 132.34 294.49 132.35
  Q 258.40 132.43 231.81 132.37
  Q 218.33 132.34 211.29 133.68
  C 177.57 140.08 152.60 169.20 152.88 204.06
  Q 153.06 226.59 152.96 259.25
  C 152.94 265.37 152.32 271.01 152.39 276.62
  Q 152.51 285.90 152.53 311.04
  Q 152.73 575.29 152.70 806.53
  C 152.70 843.23 181.20 874.86 218.49 876.58
  C 227.49 876.99 238.11 876.88 244.60 876.69
  Q 250.49 876.52 490.50 876.82
  Q 496.73 876.83 500.50 876.82
  Q 688.51 876.70 727.55 876.33
  Q 730.35 876.30 732.30 876.30
  Q 770.08 876.38 794.99 875.92
  C 831.34 875.26 859.50 850.33 864.08 814.25
  Q 864.78 808.78 864.78 798.25
  Q 864.72 378.25 864.74 369.17
  Q 864.75 359.88 864.30 336.84
  Q 863.94 318.68 863.93 304.53
  Q 863.92 291.68 857.75 280.81
  Q 855.23 276.36 852.57 273.69
  Q 840.18 261.23 831.56 252.91
  Q 827.14 248.64 730.91 153.51
  Q 720.30 143.02 716.78 140.55
  Z"
/>
<path fill="#0f834e" d="
  M 686.75 132.45
  C 697.04 132.52 708.17 134.53 716.78 140.55
  Q 720.30 143.02 730.91 153.51
  Q 827.14 248.64 831.56 252.91
  Q 840.18 261.23 852.57 273.69
  Q 855.23 276.36 857.75 280.81
  Q 863.92 291.68 863.93 304.53
  Q 863.94 318.68 864.30 336.84
  Q 864.75 359.88 864.74 369.17
  Q 864.72 378.25 864.78 798.25
  Q 864.78 808.78 864.08 814.25
  C 859.50 850.33 831.34 875.26 794.99 875.92
  Q 770.08 876.38 732.30 876.30
  Q 730.35 876.30 727.55 876.33
  Q 688.51 876.70 500.50 876.82
  Q 496.73 876.83 490.50 876.82
  Q 250.49 876.52 244.60 876.69
  C 238.11 876.88 227.49 876.99 218.49 876.58
  C 181.20 874.86 152.70 843.23 152.70 806.53
  Q 152.73 575.29 152.53 311.04
  Q 152.51 285.90 152.39 276.62
  C 152.32 271.01 152.94 265.37 152.96 259.25
  Q 153.06 226.59 152.88 204.06
  C 152.60 169.20 177.57 140.08 211.29 133.68
  Q 218.33 132.34 231.81 132.37
  Q 258.40 132.43 294.49 132.35
  C 297.61 132.34 301.65 131.95 304.50 131.95
  Q 366.15 132.06 544.68 131.90
  C 546.32 131.90 548.08 132.28 550.00 132.29
  C 575.14 132.34 582.90 132.42 607.32 131.98
  Q 625.37 131.66 640.77 132.03
  C 659.49 132.47 667.98 132.32 686.75 132.45
  Z
  M 677.91 162.81
  A 0.78 0.77 88.9 0 0 677.13 162.05
  Q 661.45 162.17 228.50 162.08
  C 212.50 162.08 197.19 168.19 188.46 181.97
  Q 182.30 191.69 182.31 201.31
  Q 182.39 626.78 182.31 806.05
  C 182.30 826.39 195.55 842.51 215.55 846.38
  Q 220.85 847.40 225.25 847.40
  Q 500.83 847.43 783.21 847.36
  Q 799.16 847.35 804.18 845.97
  C 819.21 841.83 831.77 829.13 833.61 812.92
  Q 834.06 808.99 834.06 803.50
  Q 833.97 615.13 834.11 308.50
  C 834.11 301.55 834.28 294.74 827.60 291.91
  C 825.29 290.92 822.82 291.20 819.50 291.13
  Q 803.02 290.82 747.71 291.03
  Q 728.58 291.10 721.92 289.48
  C 701.39 284.49 686.26 271.21 679.82 250.78
  C 678.08 245.26 677.91 237.82 677.91 232.25
  C 677.88 208.99 678.25 185.84 677.91 162.81
  Z
  M 789.77 254.70
  L 737.45 203.21
  L 707.52 173.09
  A 0.38 0.37 22.5 0 0 706.88 173.35
  Q 707.05 187.08 707.00 228.72
  Q 706.99 235.95 707.73 239.23
  C 710.00 249.18 717.52 257.15 727.29 259.89
  Q 731.50 261.07 746.42 260.91
  Q 763.78 260.72 795.74 260.87
  A 0.32 0.31 66.3 0 0 795.95 260.32
  L 789.77 254.70
  Z"
/>
<path fill="#fcfae4" d="
  M 677.91 162.81
  C 678.25 185.84 677.88 208.99 677.91 232.25
  C 677.91 237.82 678.08 245.26 679.82 250.78
  C 686.26 271.21 701.39 284.49 721.92 289.48
  Q 728.58 291.10 747.71 291.03
  Q 803.02 290.82 819.50 291.13
  C 822.82 291.20 825.29 290.92 827.60 291.91
  C 834.28 294.74 834.11 301.55 834.11 308.50
  Q 833.97 615.13 834.06 803.50
  Q 834.06 808.99 833.61 812.92
  C 831.77 829.13 819.21 841.83 804.18 845.97
  Q 799.16 847.35 783.21 847.36
  Q 500.83 847.43 225.25 847.40
  Q 220.85 847.40 215.55 846.38
  C 195.55 842.51 182.30 826.39 182.31 806.05
  Q 182.39 626.78 182.31 201.31
  Q 182.30 191.69 188.46 181.97
  C 197.19 168.19 212.50 162.08 228.50 162.08
  Q 661.45 162.17 677.13 162.05
  A 0.78 0.77 88.9 0 1 677.91 162.81
  Z
  M 526.72 242.00
  A 11.98 11.98 0.0 0 0 514.74 230.02
  L 256.74 230.02
  A 11.98 11.98 0.0 0 0 244.76 242.00
  L 244.76 247.96
  A 11.98 11.98 0.0 0 0 256.74 259.94
  L 514.74 259.94
  A 11.98 11.98 0.0 0 0 526.72 247.96
  L 526.72 242.00
  Z
  M 589.64 302.04
  A 11.19 11.19 0.0 0 0 578.45 290.85
  L 255.93 290.85
  A 11.19 11.19 0.0 0 0 244.74 302.04
  L 244.74 309.16
  A 11.19 11.19 0.0 0 0 255.93 320.35
  L 578.45 320.35
  A 11.19 11.19 0.0 0 0 589.64 309.16
  L 589.64 302.04
  Z
  M 318.71 570.59
  A 0.36 0.36 0.0 0 1 318.08 570.72
  Q 307.09 557.44 295.27 543.81
  Q 290.64 538.47 284.06 537.74
  C 272.05 536.40 265.08 546.07 266.71 557.26
  C 267.29 561.21 269.97 565.18 272.49 567.92
  Q 277.91 573.81 303.10 601.89
  C 307.60 606.90 313.65 610.25 320.61 609.98
  C 332.51 609.50 338.12 601.81 341.92 590.78
  Q 346.22 578.32 349.42 567.39
  Q 349.65 566.58 349.90 566.19
  A 0.45 0.44 55.9 0 1 350.71 566.35
  Q 352.65 576.87 356.75 585.82
  C 360.57 594.17 365.32 599.28 373.45 602.56
  Q 384.08 606.84 394.02 607.92
  C 410.21 609.68 424.93 609.43 440.31 605.57
  C 466.75 598.93 485.67 579.87 489.65 552.54
  C 491.99 536.51 490.10 519.70 480.92 506.55
  C 470.31 491.37 454.29 483.37 436.49 477.50
  Q 412.96 469.74 400.00 465.85
  C 388.61 462.43 372.54 456.11 370.38 442.73
  C 368.93 433.72 372.80 425.85 379.93 420.19
  C 385.38 415.86 392.92 413.66 400.46 413.07
  Q 416.77 411.81 431.23 414.73
  C 439.30 416.36 447.88 419.90 456.13 423.38
  C 460.11 425.06 465.54 425.81 469.22 423.27
  Q 471.09 421.98 473.07 417.71
  Q 475.76 411.92 479.84 402.60
  C 482.50 396.56 479.37 392.45 474.32 389.67
  C 455.67 379.40 434.09 374.63 413.00 374.06
  C 389.05 373.41 363.09 378.92 345.52 395.30
  Q 328.89 410.81 326.91 433.08
  C 324.41 460.98 334.09 482.53 359.86 494.94
  C 365.57 497.69 373.56 501.41 380.93 503.51
  Q 390.59 506.27 397.74 508.26
  Q 405.64 510.45 423.98 517.27
  C 436.30 521.86 446.68 530.42 446.21 544.53
  C 445.83 556.12 438.19 564.97 427.71 568.98
  C 415.39 573.69 399.47 574.06 387.31 571.42
  C 379.35 569.68 376.99 564.87 375.16 556.85
  Q 374.24 552.81 366.99 530.06
  Q 364.78 523.12 358.95 519.55
  C 350.53 514.39 339.26 517.18 334.56 526.05
  Q 332.67 529.63 332.46 530.25
  Q 328.98 540.61 321.78 560.36
  C 320.47 563.95 319.57 567.46 318.71 570.59
  Z
  M 644.32 476.83
  A 0.39 0.39 0.0 0 1 644.73 477.22
  Q 644.76 508.34 644.71 561.00
  C 644.68 579.95 649.75 596.59 668.68 604.05
  C 683.01 609.70 699.26 610.12 714.25 607.01
  Q 723.18 605.16 727.13 601.65
  C 734.76 594.88 735.12 583.21 729.44 575.11
  Q 726.36 570.73 721.33 569.16
  A 4.23 4.17 -38.3 0 0 719.71 568.98
  C 716.41 569.25 712.98 570.39 709.62 570.68
  C 702.62 571.29 687.99 572.04 685.62 564.34
  Q 684.32 560.12 684.26 553.75
  Q 684.03 529.95 684.15 476.72
  A 0.28 0.28 0.0 0 1 684.43 476.44
  Q 692.31 476.44 711.28 476.50
  C 721.59 476.53 728.53 477.14 730.34 466.04
  Q 731.74 457.50 729.33 449.39
  C 727.75 444.06 723.03 442.78 718.00 442.77
  Q 704.37 442.75 684.82 442.84
  A 0.71 0.71 0.0 0 1 684.11 442.12
  Q 684.39 422.75 684.00 408.27
  C 683.71 397.53 677.18 393.44 667.53 393.47
  C 659.27 393.50 650.42 392.73 645.86 401.27
  Q 644.68 403.48 644.70 409.42
  Q 644.75 425.34 644.74 442.22
  A 0.63 0.63 0.0 0 1 644.09 442.85
  Q 637.90 442.58 627.57 442.90
  C 614.16 443.31 613.53 457.73 616.13 467.73
  C 617.46 472.79 620.51 476.15 625.52 476.58
  Q 634.30 477.33 644.32 476.83
  Z
  M 548.02 472.02
  Q 547.98 469.08 548.11 456.76
  C 548.21 447.49 547.02 441.96 537.33 439.94
  C 530.43 438.49 517.17 438.43 513.65 446.17
  C 512.73 448.19 512.96 451.21 512.72 453.31
  Q 512.44 455.83 512.44 458.72
  Q 512.67 593.56 512.68 594.75
  C 512.70 600.71 517.43 603.60 522.73 604.48
  Q 533.36 606.24 543.17 604.01
  Q 546.74 603.20 549.73 599.96
  C 552.52 596.93 552.01 591.03 551.97 587.25
  Q 551.75 564.56 551.86 530.00
  Q 551.89 519.06 552.68 514.74
  Q 557.61 487.69 583.41 481.90
  C 587.28 481.03 593.56 481.04 596.74 480.89
  Q 607.16 480.36 608.87 469.94
  Q 610.48 460.14 607.89 449.68
  C 606.05 442.27 599.50 440.94 592.76 441.27
  C 573.04 442.25 555.38 453.13 548.74 472.14
  A 0.37 0.37 0.0 0 1 548.02 472.02
  Z
  M 756.88 669.08
  A 12.22 12.22 0.0 0 0 744.66 656.86
  L 257.04 656.86
  A 12.22 12.22 0.0 0 0 244.82 669.08
  L 244.82 674.64
  A 12.22 12.22 0.0 0 0 257.04 686.86
  L 744.66 686.86
  A 12.22 12.22 0.0 0 0 756.88 674.64
  L 756.88 669.08
  Z
  M 667.03 728.51
  A 11.38 11.38 0.0 0 0 655.65 717.13
  L 256.23 717.13
  A 11.38 11.38 0.0 0 0 244.85 728.51
  L 244.85 735.49
  A 11.38 11.38 0.0 0 0 256.23 746.87
  L 655.65 746.87
  A 11.38 11.38 0.0 0 0 667.03 735.49
  L 667.03 728.51
  Z
  M 599.07 788.63
  A 11.14 11.14 0.0 0 0 587.93 777.49
  L 255.97 777.49
  A 11.14 11.14 0.0 0 0 244.83 788.63
  L 244.83 795.99
  A 11.14 11.14 0.0 0 0 255.97 807.13
  L 587.93 807.13
  A 11.14 11.14 0.0 0 0 599.07 795.99
  L 599.07 788.63
  Z"
/>
<path fill="#91d9a8" d="
  M 737.45 203.21
  L 736.97 203.09
  A 0.30 0.30 0.0 0 0 736.68 203.60
  L 788.70 254.78
  A 0.43 0.39 74.3 0 0 788.86 254.88
  Q 789.69 255.15 789.77 254.70
  L 795.95 260.32
  A 0.32 0.31 66.3 0 1 795.74 260.87
  Q 763.78 260.72 746.42 260.91
  Q 731.50 261.07 727.29 259.89
  C 717.52 257.15 710.00 249.18 707.73 239.23
  Q 706.99 235.95 707.00 228.72
  Q 707.05 187.08 706.88 173.35
  A 0.38 0.37 22.5 0 1 707.52 173.09
  L 737.45 203.21
  Z"
/>
<path fill="#fcfae4" d="
  M 737.45 203.21
  L 789.77 254.70
  Q 789.69 255.15 788.86 254.88
  A 0.43 0.39 74.3 0 1 788.70 254.78
  L 736.68 203.60
  A 0.30 0.30 0.0 0 1 736.97 203.09
  L 737.45 203.21
  Z"
/>
<rect fill="#91d9a8" x="244.76" y="230.02" width="281.96" height="29.92" rx="11.98"/>
<rect fill="#91d9a8" x="244.74" y="290.85" width="344.90" height="29.50" rx="11.19"/>
<path fill="#0f834e" d="
  M 318.71 570.59
  C 319.57 567.46 320.47 563.95 321.78 560.36
  Q 328.98 540.61 332.46 530.25
  Q 332.67 529.63 334.56 526.05
  C 339.26 517.18 350.53 514.39 358.95 519.55
  Q 364.78 523.12 366.99 530.06
  Q 374.24 552.81 375.16 556.85
  C 376.99 564.87 379.35 569.68 387.31 571.42
  C 399.47 574.06 415.39 573.69 427.71 568.98
  C 438.19 564.97 445.83 556.12 446.21 544.53
  C 446.68 530.42 436.30 521.86 423.98 517.27
  Q 405.64 510.45 397.74 508.26
  Q 390.59 506.27 380.93 503.51
  C 373.56 501.41 365.57 497.69 359.86 494.94
  C 334.09 482.53 324.41 460.98 326.91 433.08
  Q 328.89 410.81 345.52 395.30
  C 363.09 378.92 389.05 373.41 413.00 374.06
  C 434.09 374.63 455.67 379.40 474.32 389.67
  C 479.37 392.45 482.50 396.56 479.84 402.60
  Q 475.76 411.92 473.07 417.71
  Q 471.09 421.98 469.22 423.27
  C 465.54 425.81 460.11 425.06 456.13 423.38
  C 447.88 419.90 439.30 416.36 431.23 414.73
  Q 416.77 411.81 400.46 413.07
  C 392.92 413.66 385.38 415.86 379.93 420.19
  C 372.80 425.85 368.93 433.72 370.38 442.73
  C 372.54 456.11 388.61 462.43 400.00 465.85
  Q 412.96 469.74 436.49 477.50
  C 454.29 483.37 470.31 491.37 480.92 506.55
  C 490.10 519.70 491.99 536.51 489.65 552.54
  C 485.67 579.87 466.75 598.93 440.31 605.57
  C 424.93 609.43 410.21 609.68 394.02 607.92
  Q 384.08 606.84 373.45 602.56
  C 365.32 599.28 360.57 594.17 356.75 585.82
  Q 352.65 576.87 350.71 566.35
  A 0.45 0.44 55.9 0 0 349.90 566.19
  Q 349.65 566.58 349.42 567.39
  Q 346.22 578.32 341.92 590.78
  C 338.12 601.81 332.51 609.50 320.61 609.98
  C 313.65 610.25 307.60 606.90 303.10 601.89
  Q 277.91 573.81 272.49 567.92
  C 269.97 565.18 267.29 561.21 266.71 557.26
  C 265.08 546.07 272.05 536.40 284.06 537.74
  Q 290.64 538.47 295.27 543.81
  Q 307.09 557.44 318.08 570.72
  A 0.36 0.36 0.0 0 0 318.71 570.59
  Z"
/>
<path fill="#0f834e" d="
  M 644.32 476.83
  Q 634.30 477.33 625.52 476.58
  C 620.51 476.15 617.46 472.79 616.13 467.73
  C 613.53 457.73 614.16 443.31 627.57 442.90
  Q 637.90 442.58 644.09 442.85
  A 0.63 0.63 0.0 0 0 644.74 442.22
  Q 644.75 425.34 644.70 409.42
  Q 644.68 403.48 645.86 401.27
  C 650.42 392.73 659.27 393.50 667.53 393.47
  C 677.18 393.44 683.71 397.53 684.00 408.27
  Q 684.39 422.75 684.11 442.12
  A 0.71 0.71 0.0 0 0 684.82 442.84
  Q 704.37 442.75 718.00 442.77
  C 723.03 442.78 727.75 444.06 729.33 449.39
  Q 731.74 457.50 730.34 466.04
  C 728.53 477.14 721.59 476.53 711.28 476.50
  Q 692.31 476.44 684.43 476.44
  A 0.28 0.28 0.0 0 0 684.15 476.72
  Q 684.03 529.95 684.26 553.75
  Q 684.32 560.12 685.62 564.34
  C 687.99 572.04 702.62 571.29 709.62 570.68
  C 712.98 570.39 716.41 569.25 719.71 568.98
  A 4.23 4.17 -38.3 0 1 721.33 569.16
  Q 726.36 570.73 729.44 575.11
  C 735.12 583.21 734.76 594.88 727.13 601.65
  Q 723.18 605.16 714.25 607.01
  C 699.26 610.12 683.01 609.70 668.68 604.05
  C 649.75 596.59 644.68 579.95 644.71 561.00
  Q 644.76 508.34 644.73 477.22
  A 0.39 0.39 0.0 0 0 644.32 476.83
  Z"
/>
<path fill="#0f834e" d="
  M 548.02 472.02
  A 0.37 0.37 0.0 0 0 548.74 472.14
  C 555.38 453.13 573.04 442.25 592.76 441.27
  C 599.50 440.94 606.05 442.27 607.89 449.68
  Q 610.48 460.14 608.87 469.94
  Q 607.16 480.36 596.74 480.89
  C 593.56 481.04 587.28 481.03 583.41 481.90
  Q 557.61 487.69 552.68 514.74
  Q 551.89 519.06 551.86 530.00
  Q 551.75 564.56 551.97 587.25
  C 552.01 591.03 552.52 596.93 549.73 599.96
  Q 546.74 603.20 543.17 604.01
  Q 533.36 606.24 522.73 604.48
  C 517.43 603.60 512.70 600.71 512.68 594.75
  Q 512.67 593.56 512.44 458.72
  Q 512.44 455.83 512.72 453.31
  C 512.96 451.21 512.73 448.19 513.65 446.17
  C 517.17 438.43 530.43 438.49 537.33 439.94
  C 547.02 441.96 548.21 447.49 548.11 456.76
  Q 547.98 469.08 548.02 472.02
  Z"
/>
<rect fill="#91d9a8" x="244.82" y="656.86" width="512.06" height="30.00" rx="12.22"/>
<rect fill="#91d9a8" x="244.85" y="717.13" width="422.18" height="29.74" rx="11.38"/>
<rect fill="#91d9a8" x="244.83" y="777.49" width="354.24" height="29.64" rx="11.14"/>
</svg>
