<svg xmlns="http://www.w3.org/2000/svg" viewBox="0 0 512 512" role="img" aria-labelledby="title desc">
  <title id="title">Voievox SRT アイコン</title>
  <desc id="desc">緑のアウトラインで縁取られた書類にSrtの文字が入ったアイコン</desc>
  <defs>
    <linearGradient id="sheet" x1="0" x2="0" y1="0" y2="1">
      <stop offset="0%" stop-color="#f7f5ea" />
      <stop offset="100%" stop-color="#f1eedf" />
    </linearGradient>
  </defs>
  <rect width="512" height="512" rx="112" fill="#9edda6" />
  <path
    d="M136 78h172.5L404 173.5V414c0 28.7-23.3 52-52 52H136c-28.7 0-52-23.3-52-52V130c0-28.7 23.3-52 52-52Z"
    fill="url(#sheet)"
    stroke="#1f8a55"
    stroke-width="18"
    stroke-linejoin="round"
  />
  <path
    d="M308 78v78c0 9.9 8.1 18 18 18h78"
    fill="none"
    stroke="#1f8a55"
    stroke-width="18"
    stroke-linecap="round"
    stroke-linejoin="round"
  />
  <path
    d="M165 260c7.5-11.4 17.4-17.1 29.8-17.1 10.8 0 18.6 3.9 23.4 11.8 3.3 5.5 5 12.6 5 21.2 0 9.6-1.9 17.7-5.8 24.4-5.1 9.1-13.2 13.6-24.4 13.6-9.7 0-17.5-3.5-23.4-10.5v30h-19.6V253h15c1.4 0 2.1.6 2.1 1.8Z"
    fill="#1f8a55"
  />
  <path
    d="M255.2 294.4v-18.2c0-23.5 14.3-35.3 42.9-35.3 8.7 0 17 .9 25 2.6l-2.9 15.9c-7.8-1.2-14.3-1.8-19.4-1.8-11.6 0-17.4 4.8-17.4 14.5v3.3h28.3v18.9h-28.3v58.7h-28.2v-58.6Z"
    fill="#1f8a55"
  />
  <path
    d="M360.9 277.2c-7.1 0-12.4 1.4-15.8 4.3-3.4 2.9-5.1 6.8-5.1 11.7 0 3.8 1.5 7 4.4 9.6 2.9 2.6 7.8 4.8 14.5 6.6 9.9 2.7 17.1 6.1 21.6 10.2 4.5 4.1 6.8 10 6.8 17.8 0 9.4-3.3 16.9-10 22.4-6.7 5.5-15.7 8.2-27 8.2-11.1 0-22.1-2.4-33-7.2l5.5-15.8c9.7 4.1 18.3 6.1 25.7 6.1 11.4 0 17.1-4.2 17.1-12.5 0-3.9-1.7-7-5.2-9.4-3.5-2.4-8.6-4.6-15.4-6.6-8.9-2.7-15.5-6-19.7-9.9-4.2-3.9-6.3-9.7-6.3-17.2 0-8.9 3.1-16.1 9.2-21.6 6.1-5.5 14.9-8.3 26.3-8.3 9.2 0 18.9 1.6 29 4.9l-4.7 16c-8-2.6-15-3.9-21-3.9Z"
    fill="#1f8a55"
  />
  <rect x="168" y="354" width="176" height="16" rx="8" fill="#83c898" />
  <rect x="168" y="384" width="106" height="16" rx="8" fill="#83c898" />
</svg>
