<svg xmlns="http://www.w3.org/2000/svg" viewBox="0 0 512 512" role="img" aria-label="Srt file icon">
  <rect width="512" height="512" rx="96" fill="#8adfae"/>
  <path d="M136 72h184l96 96v272a32 32 0 0 1-32 32H136a32 32 0 0 1-32-32V104a32 32 0 0 1 32-32Z" fill="#f8f5e7"/>
  <path d="M320 72v96h96" fill="#d4e9ce"/>
  <path d="M320 72 432 184H320Z" fill="#2f8a57"/>
  <path d="M175 224a40 40 0 0 1 31 15l-22 17a16 16 0 0 0-25 1c-7 10 1 21 14 26l18 7c29 12 34 45 13 65a47 47 0 0 1-38 13 62 62 0 0 1-45-22l21-17c10 11 22 18 32 17 15 0 22-13 10-23a55 55 0 0 0-15-8c-16-7-31-15-38-33-8-23 7-48 32-56a59 59 0 0 1 12-2Z" fill="#2f8a57"/>
  <path d="M279 218c19 0 34 7 45 19l-22 18a27 27 0 0 0-22-10c-15 0-27 12-27 31s12 31 27 31c10 0 18-4 24-12l23 16c-9 15-26 26-47 26-34 0-57-24-57-61s23-62 56-62Z" fill="#2f8a57"/>
  <path d="M324 226v-26h102v29h-35v103h-33V229Z" fill="#2f8a57"/>
  <path d="M176 328h160" stroke="#2f8a57" stroke-width="24" stroke-linecap="round" opacity=".4"/>
  <path d="M176 376h128" stroke="#2f8a57" stroke-width="24" stroke-linecap="round" opacity=".4"/>
</svg>
